<?xml version="1.0" encoding="utf-8"?>
<svg viewBox="3.732 61.24 53.4758 67.978" xmlns="http://www.w3.org/2000/svg">
  <rect x="4.084" y="63.867" width="15.027" height="62.8" rx="0.962" ry="0.962" style="stroke: rgb(150, 150, 150); fill-opacity: 1; fill: rgb(150, 150, 150);" transform="matrix(1, 0, 0, 1, 1.1102230246251565e-16, 0)"/>
  <rect x="7.923" y="61.752" width="7.321" height="2.04" rx="1" ry="1" style="stroke: rgb(150, 150, 150); fill: rgb(150, 150, 150);" transform="matrix(1, 0, 0, 1, 1.1102230246251565e-16, 0)"/>
  <text style="fill: rgb(0, 0, 0); font-family: Arial, sans-serif; font-size: 18.7px; font-weight: 700; white-space: pre;" x="5.022" y="78.24" transform="matrix(1, 0, 0, 1, 1.1102230246251565e-16, 0)">A</text>
  <text style="fill: rgb(0, 0, 0); font-family: Arial, sans-serif; font-size: 18.7px; font-weight: 700; white-space: pre;" x="3.732" y="93.814" transform="matrix(1, 0, 0, 1, 1.1102230246251565e-16, 0)">M</text>
  <text style="fill: rgb(0, 0, 0); font-family: Arial, sans-serif; font-size: 18.7px; font-weight: 700; white-space: pre;" x="5.207" y="110.129" transform="matrix(1, 0, 0, 1, 1.1102230246251565e-16, 0)">P</text>
  <text style="font-family: Arial, sans-serif; font-size: 18.7px; font-weight: 700; white-space: pre;" x="4.078" y="125.239" dx="1.5" dy="-0.021" transform="matrix(1, 0, 0, 1, 1.1102230246251565e-16, 0)">S</text>
  <text style="font-family: Arial, sans-serif; font-size: 8.8px; white-space: pre;" x="18.703" y="77.836" dx="-0.046" dy="0.396" transform="matrix(1, 0, 0, 1, 1.1102230246251565e-16, 0)">PEIRON</text>
  <text style="font-family: Arial, sans-serif; font-size: 8.8px; white-space: pre;" x="18.767" y="94.223" dx="0.133" dy="-0.325" transform="matrix(1, 0, 0, 1, 1.1102230246251565e-16, 0)">ARINE</text>
  <text style="font-family: Arial, sans-serif; font-size: 8.8px; white-space: pre;" x="15.716" y="109.772" dx="2.566" dy="0.366" transform="matrix(1, 0, 0, 1, 1.1102230246251565e-16, 0)">OWER</text>
  <text style="font-family: Arial, sans-serif; font-size: 8.8px; white-space: pre;" x="15.695" y="124.706" dx="2.88" transform="matrix(1, 0, 0, 1, 1.1102230246251565e-16, 0)">YSTEMS </text>
</svg>